<?xml version="1.0" encoding="UTF-8" standalone="no"?><!-- Generator: Gravit.io --><svg xmlns="http://www.w3.org/2000/svg" xmlns:xlink="http://www.w3.org/1999/xlink" style="isolation:isolate" viewBox="0 0 100 100" width="100pt" height="100pt"><defs><clipPath id="_clipPath_psLjGSzuMfHVVoAfNJXPOWqrzMpT2CPc"><rect width="100" height="100"/></clipPath></defs><g clip-path="url(#_clipPath_psLjGSzuMfHVVoAfNJXPOWqrzMpT2CPc)"><path d=" M 95.833 54.165 L 87.503 54.165 C 85.2 54.165 83.335 52.3 83.335 50 C 83.335 47.7 85.2 45.833 87.503 45.833 L 95.833 45.833 C 98.135 45.833 100 47.7 100 50 C 100 52.3 98.137 54.165 95.833 54.165 Z  M 79.466 26.43 C 77.839 28.058 75.197 28.058 73.574 26.43 C 71.946 24.803 71.946 22.165 73.574 20.538 L 79.466 14.646 C 81.089 13.018 83.731 13.018 85.359 14.646 C 86.982 16.273 86.982 18.911 85.359 20.538 L 79.466 26.43 Z  M 50.002 74.999 C 36.194 74.999 24.999 63.806 24.999 50 C 24.999 36.192 36.192 24.999 50.002 24.999 C 63.81 24.999 75.001 36.192 75.001 50 C 75.001 63.806 63.81 74.999 50.002 74.999 Z  M 50.002 33.333 C 40.797 33.333 33.333 40.795 33.333 50 C 33.333 59.203 40.799 66.667 50.002 66.667 C 59.205 66.667 66.667 59.203 66.667 50 C 66.667 40.795 59.207 33.333 50.002 33.333 Z  M 50.002 16.667 C 47.7 16.667 45.835 14.8 45.835 12.499 L 45.835 4.167 C 45.835 1.867 47.7 0 50.002 0 C 52.302 0 54.169 1.867 54.169 4.167 L 54.169 12.499 C 54.169 14.8 52.3 16.667 50.002 16.667 Z  M 20.538 26.43 L 14.646 20.538 C 13.018 18.911 13.018 16.273 14.646 14.646 C 16.273 13.018 18.911 13.018 20.538 14.646 L 26.43 20.538 C 28.058 22.165 28.058 24.803 26.43 26.43 C 24.803 28.058 22.165 28.058 20.538 26.43 Z  M 16.667 50 C 16.667 52.3 14.8 54.165 12.499 54.165 L 4.165 54.165 C 1.865 54.165 0 52.3 0 50 C 0 47.7 1.867 45.833 4.165 45.833 L 12.499 45.833 C 14.802 45.833 16.667 47.7 16.667 50 Z  M 20.538 73.57 C 22.165 71.944 24.803 71.944 26.43 73.57 C 28.058 75.197 28.058 77.837 26.43 79.462 L 20.538 85.354 C 18.911 86.982 16.273 86.982 14.646 85.354 C 13.018 83.729 13.018 81.089 14.646 79.462 L 20.538 73.57 Z  M 50.002 83.333 C 52.302 83.333 54.169 85.198 54.169 87.498 L 54.169 95.833 C 54.169 98.133 52.302 100 50.002 100 C 47.7 100 45.835 98.133 45.835 95.833 L 45.835 87.498 C 45.835 85.198 47.7 83.333 50.002 83.333 Z  M 79.466 73.57 L 85.359 79.462 C 86.982 81.089 86.982 83.729 85.359 85.354 C 83.731 86.982 81.089 86.982 79.466 85.354 L 73.574 79.462 C 71.946 77.837 71.946 75.197 73.574 73.57 C 75.197 71.942 77.837 71.942 79.466 73.57 Z " fill-rule="evenodd" fill="rgb(247,247,247)"/></g></svg>