<?xml version="1.0" encoding="UTF-8" standalone="no"?><!-- Generator: Gravit.io --><svg xmlns="http://www.w3.org/2000/svg" xmlns:xlink="http://www.w3.org/1999/xlink" style="isolation:isolate" viewBox="0 0 100 100" width="100pt" height="100pt"><defs><clipPath id="_clipPath_RJGCzAcwrWA1qCRtyoSmGia3hxjcj6hT"><rect width="100" height="100"/></clipPath></defs><g clip-path="url(#_clipPath_RJGCzAcwrWA1qCRtyoSmGia3hxjcj6hT)"><path d=" M 50.002 100 C 22.386 100 0 77.614 0 50.002 C 0 22.386 22.386 0 50.002 0 C 53.148 0 56.215 0.325 59.199 0.883 C 58.649 3.284 58.332 5.772 58.332 8.334 C 58.332 26.745 73.259 41.668 91.67 41.668 C 94.233 41.668 96.72 41.351 99.121 40.801 C 99.675 43.789 100 46.852 100 50.002 C 100 77.614 77.614 100 50.002 100 Z  M 42.551 17.531 C 27.733 20.919 16.669 34.154 16.669 50.002 C 16.669 68.409 31.591 83.335 50.002 83.335 C 65.846 83.335 79.081 72.272 82.469 57.453 C 62.241 53.686 46.314 37.759 42.551 17.531 Z " fill-rule="evenodd" fill="rgb(247,247,247)"/></g></svg>