<?xml version="1.0" encoding="UTF-8" standalone="no"?><!-- Generator: Gravit.io --><svg xmlns="http://www.w3.org/2000/svg" xmlns:xlink="http://www.w3.org/1999/xlink" style="isolation:isolate" viewBox="0 0 100 100" width="100pt" height="100pt"><defs><clipPath id="_clipPath_FQzXK9xg95WnBRUnDAaTK4IRR3XQugF8"><rect width="100" height="100"/></clipPath></defs><g clip-path="url(#_clipPath_FQzXK9xg95WnBRUnDAaTK4IRR3XQugF8)"><path d=" M 36.363 86.363 C 16.281 86.363 0 70.084 0 50 C 0 29.916 16.281 13.637 36.363 13.637 C 50.01 13.637 61.887 21.165 68.105 32.282 C 69.615 32.025 71.147 31.816 72.726 31.816 C 87.79 31.816 100 44.029 100 59.092 C 100 74.15 87.79 86.363 72.726 86.363 C 66.419 86.363 43.632 86.363 36.363 86.363 Z  M 72.726 77.271 C 82.768 77.271 90.91 69.129 90.91 59.092 C 90.91 49.05 82.768 40.908 72.726 40.908 C 69.09 40.908 65.721 42.001 62.878 43.842 C 60.08 31.759 49.299 22.726 36.363 22.726 C 21.302 22.726 9.092 34.937 9.092 50 C 9.092 65.061 21.302 77.271 36.363 77.271 C 44.585 77.271 65.864 77.271 72.726 77.271 Z " fill-rule="evenodd" fill="rgb(247,247,247)"/></g></svg>