<?xml version="1.0" encoding="UTF-8" standalone="no"?><!-- Generator: Gravit.io --><svg xmlns="http://www.w3.org/2000/svg" xmlns:xlink="http://www.w3.org/1999/xlink" style="isolation:isolate" viewBox="0 0 100 100" width="100pt" height="100pt"><defs><clipPath id="_clipPath_FXrQgvRU8grl6MjvqIEHFHxlW4idcGgw"><rect width="100" height="100"/></clipPath></defs><g clip-path="url(#_clipPath_FXrQgvRU8grl6MjvqIEHFHxlW4idcGgw)"><path d=" M 2.668 65.908 C 2.073 64.44 1.593 62.919 1.196 61.362 L 100 61.362 C 100 62.917 99.841 64.426 99.589 65.908 L 2.668 65.908 Z  M 18.774 20.454 C 23.989 17.565 29.98 15.911 36.362 15.911 C 42.74 15.911 48.718 17.57 53.925 20.454 L 18.774 20.454 Z  M 0.316 47.727 C 0.509 46.177 0.811 44.665 1.196 43.183 L 93.013 43.183 C 94.265 44.577 95.375 46.095 96.32 47.727 L 0.316 47.727 Z  M 2.668 38.638 C 3.307 37.062 4.062 35.549 4.905 34.092 L 67.824 34.092 C 67.915 34.246 68.015 34.399 68.104 34.558 C 69.613 34.299 71.145 34.092 72.725 34.092 C 78.296 34.092 83.473 35.769 87.788 38.638 L 2.668 38.638 Z  M 8.003 29.546 C 9.321 27.903 10.787 26.391 12.367 25 L 60.376 25 C 61.944 26.386 63.39 27.909 64.701 29.546 L 8.003 29.546 Z  M 99.586 56.817 L 0.316 56.817 C 0.13 55.325 0 53.816 0 52.273 L 98.413 52.273 C 98.929 53.734 99.325 55.253 99.586 56.817 Z  M 98.413 70.454 C 97.852 72.043 97.152 73.561 96.32 75 L 8.003 75 C 6.855 73.57 5.828 72.047 4.905 70.454 L 98.413 70.454 Z  M 12.367 79.546 L 93.011 79.546 C 91.465 81.269 89.722 82.805 87.785 84.089 L 18.774 84.089 C 16.465 82.812 14.333 81.271 12.367 79.546 Z " fill-rule="evenodd" fill="rgb(247,247,247)"/></g></svg>