<?xml version="1.0" encoding="UTF-8" standalone="no"?><!-- Generator: Gravit.io --><svg xmlns="http://www.w3.org/2000/svg" xmlns:xlink="http://www.w3.org/1999/xlink" style="isolation:isolate" viewBox="0 0 100 100" width="100pt" height="100pt"><defs><clipPath id="_clipPath_B49Ni6Y4W0ElfCdHHGNOA4sPKc8Ja39S"><rect width="100" height="100"/></clipPath></defs><g clip-path="url(#_clipPath_B49Ni6Y4W0ElfCdHHGNOA4sPKc8Ja39S)"><path d=" M 81.818 71.139 L 81.818 61.181 C 87.248 58.037 90.908 52.178 90.908 45.452 C 90.908 35.412 82.768 27.27 72.728 27.27 C 69.089 27.27 65.718 28.361 62.877 30.204 C 60.079 18.118 49.298 9.088 36.362 9.088 C 21.301 9.088 9.09 21.298 9.09 36.36 C 9.09 44.429 12.613 51.652 18.18 56.646 L 18.18 67.821 C 7.324 61.529 0 49.814 0 36.36 C 0 16.277 16.279 -0.002 36.362 -0.002 C 50.009 -0.002 61.886 7.524 68.107 18.643 C 69.614 18.387 71.144 18.177 72.728 18.177 C 87.789 18.177 100 30.388 100 45.452 C 100 57.324 92.404 67.393 81.818 71.139 Z  M 31.818 72.726 C 29.309 72.726 29.545 70.691 29.545 68.184 L 29.545 50 C 29.545 47.491 29.309 45.454 31.818 45.454 C 34.327 45.454 34.091 47.491 34.091 50 L 34.091 68.184 C 34.091 70.691 34.327 72.726 31.818 72.726 Z  M 31.818 81.818 C 34.327 81.818 36.362 83.855 36.362 86.364 C 36.362 88.876 34.327 90.91 31.818 90.91 C 29.309 90.91 27.272 88.876 27.272 86.364 C 27.272 83.855 29.306 81.818 31.818 81.818 Z  M 50 81.818 C 47.491 81.818 47.727 79.784 47.727 77.272 L 47.727 59.092 C 47.727 56.58 47.491 54.546 50 54.546 C 52.509 54.546 52.273 56.58 52.273 59.092 L 52.273 77.272 C 52.273 79.784 52.509 81.818 50 81.818 Z  M 50 90.91 C 52.509 90.91 54.544 92.944 54.544 95.456 C 54.544 97.966 52.509 100.002 50 100.002 C 47.491 100.002 45.454 97.966 45.454 95.456 C 45.454 92.942 47.488 90.91 50 90.91 Z  M 68.182 72.726 C 65.673 72.726 65.909 70.691 65.909 68.184 L 65.909 50 C 65.909 47.491 65.673 45.454 68.182 45.454 C 70.691 45.454 70.455 47.491 70.455 50 L 70.455 68.184 C 70.455 70.691 70.691 72.726 68.182 72.726 Z  M 68.182 81.818 C 70.691 81.818 72.728 83.855 72.728 86.364 C 72.728 88.876 70.691 90.91 68.182 90.91 C 65.673 90.91 63.636 88.876 63.636 86.364 C 63.636 83.855 65.673 81.818 68.182 81.818 Z " fill-rule="evenodd" fill="rgb(247,247,247)"/></g></svg>