<?xml version="1.0" encoding="UTF-8" standalone="no"?><!-- Generator: Gravit.io --><svg xmlns="http://www.w3.org/2000/svg" xmlns:xlink="http://www.w3.org/1999/xlink" style="isolation:isolate" viewBox="0 0 100 100" width="100pt" height="100pt"><defs><clipPath id="_clipPath_n8vWQrorsVpKEBgvXkIRROO8tu7rQuCH"><rect width="100" height="100"/></clipPath></defs><g clip-path="url(#_clipPath_n8vWQrorsVpKEBgvXkIRROO8tu7rQuCH)"><path d=" M 92.935 51.371 L 92.935 51.371 C 95.975 55.703 97.777 60.968 97.777 66.669 C 97.777 81.393 85.84 93.335 71.112 93.335 C 64.944 93.335 42.661 93.335 35.556 93.335 C 15.918 93.335 0 77.417 0 57.779 C 0 38.141 15.918 22.223 35.556 22.223 C 40.005 22.223 44.255 23.056 48.18 24.55 L 48.18 24.55 C 51.814 14.144 61.688 6.665 73.334 6.665 C 75.012 6.665 76.648 6.839 78.239 7.137 C 77.948 8.414 77.779 9.744 77.779 11.11 C 77.779 20.929 85.738 28.888 95.555 28.888 C 96.924 28.888 98.251 28.719 99.531 28.426 C 99.827 30.02 100 31.655 100 33.333 C 99.998 40.296 97.306 46.622 92.935 51.371 Z  M 8.888 57.779 C 8.888 72.507 20.825 84.445 35.554 84.445 C 43.59 84.445 64.4 84.445 71.109 84.445 C 80.929 84.445 88.887 76.484 88.887 66.669 C 88.887 56.85 80.929 48.889 71.109 48.889 C 67.553 48.889 64.257 49.96 61.477 51.758 C 58.741 39.943 48.202 31.111 35.554 31.111 C 20.825 31.111 8.888 43.05 8.888 57.779 Z  M 52.336 26.45 C 52.338 26.45 52.34 26.45 52.34 26.45 C 52.34 26.45 52.338 26.45 52.336 26.45 Z  M 69.358 16.015 C 62.913 17.491 57.857 22.483 56.19 28.851 L 56.19 28.851 C 60.453 31.9 64.02 35.856 66.591 40.452 C 68.067 40.201 69.563 39.996 71.109 39.996 C 76.928 39.996 82.295 41.886 86.678 45.044 L 86.678 45.044 C 88.585 42.868 89.979 40.225 90.648 37.305 C 79.862 35.296 71.367 26.808 69.358 16.015 Z " fill-rule="evenodd" fill="rgb(247,247,247)"/></g></svg>