<?xml version="1.0" encoding="UTF-8" standalone="no"?><!-- Generator: Gravit.io --><svg xmlns="http://www.w3.org/2000/svg" xmlns:xlink="http://www.w3.org/1999/xlink" style="isolation:isolate" viewBox="0 0 100 100" width="100pt" height="100pt"><defs><clipPath id="_clipPath_SrmpiymKKrq8T050FFT72PiNtA7fQT1G"><rect width="100" height="100"/></clipPath></defs><g clip-path="url(#_clipPath_SrmpiymKKrq8T050FFT72PiNtA7fQT1G)"><path d=" M 96.296 53.702 L 88.887 53.702 C 86.843 53.702 85.183 52.045 85.183 49.998 C 85.183 47.953 86.843 46.298 88.887 46.298 L 96.296 46.298 C 98.341 46.298 100 47.955 100 49.998 C 100 52.045 98.341 53.702 96.296 53.702 Z  M 81.744 29.047 C 80.297 30.494 77.953 30.494 76.506 29.047 C 75.06 27.603 75.06 25.256 76.506 23.811 L 81.744 18.574 C 83.19 17.127 85.535 17.127 86.982 18.574 C 88.428 20.018 88.428 22.365 86.982 23.811 L 81.744 29.047 Z  M 76.286 57.953 L 76.286 57.953 C 79.525 61.816 81.483 66.787 81.483 72.223 C 81.483 84.493 71.533 94.445 59.26 94.445 C 54.12 94.445 35.551 94.445 29.63 94.445 C 13.267 94.445 0 81.18 0 64.815 C 0 48.45 13.267 35.185 29.63 35.185 C 32.541 35.185 35.353 35.615 38.007 36.396 C 42.072 31.161 48.412 27.777 55.555 27.777 C 67.829 27.777 77.779 37.728 77.779 49.998 C 77.777 52.804 77.234 55.482 76.286 57.953 Z  M 7.407 64.815 C 7.407 77.089 17.354 87.036 29.628 87.036 C 36.325 87.036 53.666 87.036 59.258 87.036 C 67.44 87.036 74.073 80.402 74.073 72.223 C 74.073 64.041 67.44 57.407 59.258 57.407 C 56.294 57.407 53.548 58.299 51.233 59.798 C 48.953 49.952 40.168 42.593 29.628 42.593 C 17.354 42.593 7.407 52.541 7.407 64.815 Z  M 55.553 35.185 C 51.457 35.185 47.747 36.848 45.067 39.536 C 49.401 42.195 53.003 45.931 55.492 50.378 C 56.722 50.169 57.969 49.998 59.258 49.998 C 63.193 49.998 66.886 51.033 70.092 52.826 L 70.092 52.826 C 70.27 51.911 70.37 50.967 70.37 49.998 C 70.37 41.819 63.736 35.185 55.553 35.185 Z  M 55.553 20.368 C 53.509 20.368 51.851 18.711 51.851 16.666 L 51.851 9.26 C 51.851 7.213 53.511 5.555 55.553 5.555 C 57.6 5.555 59.258 7.213 59.258 9.26 L 59.258 16.666 C 59.258 18.713 57.602 20.368 55.553 20.368 Z  M 29.365 29.047 L 24.129 23.811 C 22.683 22.365 22.683 20.018 24.129 18.574 C 25.574 17.127 27.92 17.127 29.365 18.574 L 34.603 23.811 C 36.049 25.256 36.049 27.603 34.603 29.047 C 33.158 30.494 30.811 30.494 29.365 29.047 Z " fill-rule="evenodd" fill="rgb(247,247,247)"/></g></svg>