<?xml version="1.0" encoding="UTF-8" standalone="no"?><!-- Generator: Gravit.io --><svg xmlns="http://www.w3.org/2000/svg" xmlns:xlink="http://www.w3.org/1999/xlink" style="isolation:isolate" viewBox="0 0 100 100" width="100pt" height="100pt"><defs><clipPath id="_clipPath_KvMue1WcNB2icK4e4sabWVtMDALSMvLt"><rect width="100" height="100"/></clipPath></defs><g clip-path="url(#_clipPath_KvMue1WcNB2icK4e4sabWVtMDALSMvLt)"><path d=" M 81.818 71.139 L 81.818 61.181 C 87.249 58.037 90.91 52.178 90.91 45.452 C 90.91 35.412 82.768 27.27 72.726 27.27 C 69.09 27.27 65.721 28.361 62.878 30.205 C 60.08 18.119 49.299 9.089 36.363 9.089 C 21.302 9.089 9.092 21.299 9.092 36.36 C 9.092 44.429 12.617 51.652 18.184 56.646 L 18.184 67.82 C 7.326 61.529 0 49.814 0 36.36 C 0 16.278 16.281 -0.001 36.363 -0.001 C 50.01 -0.001 61.887 7.525 68.105 18.644 C 69.615 18.387 71.147 18.178 72.726 18.178 C 87.79 18.178 100 30.389 100 45.452 C 100 57.324 92.406 67.393 81.818 71.139 Z  M 31.82 45.454 C 34.329 45.454 36.363 47.491 36.363 50 L 36.363 86.363 C 36.363 88.875 34.329 90.909 31.82 90.909 C 29.31 90.909 27.274 88.875 27.274 86.363 L 27.274 50 C 27.274 47.491 29.31 45.454 31.82 45.454 Z  M 50.001 54.546 C 52.511 54.546 54.547 56.58 54.547 59.092 L 54.547 95.455 C 54.547 97.965 52.511 100.001 50.001 100.001 C 47.492 100.001 45.455 97.965 45.455 95.455 L 45.455 59.092 C 45.455 56.578 47.492 54.546 50.001 54.546 Z  M 68.183 45.454 C 70.692 45.454 72.726 47.491 72.726 50 L 72.726 86.363 C 72.726 88.875 70.692 90.909 68.183 90.909 C 65.673 90.909 63.637 88.875 63.637 86.363 L 63.637 50 C 63.637 47.491 65.673 45.454 68.183 45.454 Z " fill-rule="evenodd" fill="rgb(247,247,247)"/></g></svg>