<?xml version="1.0" encoding="UTF-8" standalone="no"?><!-- Generator: Gravit.io --><svg xmlns="http://www.w3.org/2000/svg" xmlns:xlink="http://www.w3.org/1999/xlink" style="isolation:isolate" viewBox="0 0 100 100" width="100pt" height="100pt"><defs><clipPath id="_clipPath_kJg58C2VInCPuFZVeauCrbfgDdLIkVI5"><rect width="100" height="100"/></clipPath></defs><g clip-path="url(#_clipPath_kJg58C2VInCPuFZVeauCrbfgDdLIkVI5)"><path d=" M 95.744 81.915 C 93.395 81.915 91.49 80.01 91.49 77.659 C 91.49 75.31 93.395 73.403 95.744 73.403 C 98.093 73.403 100 75.31 100 77.659 C 100 80.01 98.096 81.915 95.744 81.915 Z  M 76.595 67.662 L 76.595 58.339 C 81.679 55.396 85.107 49.911 85.107 43.614 C 85.107 34.215 77.486 26.593 68.085 26.593 C 64.678 26.593 61.525 27.614 58.863 29.34 C 56.243 18.026 46.153 9.571 34.043 9.571 C 19.941 9.571 8.51 21.003 8.51 35.102 C 8.51 42.657 11.81 49.419 17.021 54.094 L 17.021 64.555 C 6.856 58.665 0 47.698 0 35.102 C 0 16.302 15.24 1.062 34.043 1.062 C 46.819 1.062 57.937 8.107 63.759 18.517 C 65.172 18.277 66.604 18.081 68.085 18.081 C 82.185 18.081 93.616 29.512 93.616 43.614 C 93.616 54.728 86.505 64.155 76.595 67.662 Z  M 6.384 84.043 C 8.733 84.043 10.638 85.947 10.638 88.299 C 10.638 90.648 8.733 92.554 6.384 92.554 C 4.035 92.554 2.128 90.648 2.128 88.299 C 2.128 85.945 4.032 84.043 6.384 84.043 Z  M 27.659 47.872 C 27.659 45.523 27.438 43.616 29.787 43.616 C 32.136 43.616 31.915 45.523 31.915 47.872 L 31.915 98.938 L 27.659 98.938 L 27.659 98.938 L 27.659 98.938 C 27.659 94.238 23.85 90.426 19.149 90.426 L 19.149 86.171 C 22.433 86.171 25.399 87.447 27.659 89.484 L 27.659 47.872 Z  M 46.808 77.659 C 44.459 77.659 44.68 75.754 44.68 73.403 L 44.68 56.384 C 44.68 54.032 44.459 52.128 46.808 52.128 C 49.157 52.128 48.936 54.032 48.936 56.384 L 48.936 73.403 C 48.936 75.754 49.157 77.659 46.808 77.659 Z  M 46.808 86.171 C 49.157 86.171 51.064 88.075 51.064 90.426 C 51.064 92.776 49.157 94.682 46.808 94.682 C 44.459 94.682 42.552 92.776 42.552 90.426 C 42.552 88.073 44.459 86.171 46.808 86.171 Z  M 63.829 43.616 C 66.179 43.616 65.957 45.523 65.957 47.872 L 65.957 86.209 C 69.837 81.029 76.008 77.659 82.979 77.659 L 82.979 81.915 C 73.577 81.915 65.957 89.537 65.957 98.938 L 61.701 98.938 C 61.701 98.357 61.744 97.787 61.789 97.221 C 61.674 96.51 61.701 95.638 61.701 94.682 L 61.701 47.872 C 61.701 45.523 61.48 43.616 63.829 43.616 Z " fill-rule="evenodd" fill="rgb(247,247,247)"/></g></svg>