<?xml version="1.0" encoding="UTF-8" standalone="no"?><!-- Generator: Gravit.io --><svg xmlns="http://www.w3.org/2000/svg" xmlns:xlink="http://www.w3.org/1999/xlink" style="isolation:isolate" viewBox="0 0 100 100" width="100pt" height="100pt"><defs><clipPath id="_clipPath_cU3mMhb2OFQtkmCZRckr4QGbSTEOsERN"><rect width="100" height="100"/></clipPath></defs><g clip-path="url(#_clipPath_cU3mMhb2OFQtkmCZRckr4QGbSTEOsERN)"><path d=" M 81.818 75.689 L 81.818 65.731 C 87.249 62.583 90.908 56.723 90.908 49.998 C 90.908 39.96 82.768 31.818 72.726 31.818 C 69.09 31.818 65.719 32.909 62.878 34.753 C 60.08 22.667 49.299 13.635 36.363 13.635 C 21.3 13.635 9.092 25.847 9.092 40.91 C 9.092 48.977 12.615 56.205 18.184 61.194 L 18.184 72.368 C 7.326 66.077 0 54.362 0 40.91 C 0 20.826 16.281 4.545 36.363 4.545 C 50.01 4.545 61.887 12.073 68.105 23.192 C 69.615 22.936 71.144 22.726 72.726 22.726 C 87.79 22.726 100 34.939 100 49.998 C 100 61.87 92.401 71.939 81.818 75.689 Z  M 31.817 59.092 C 34.329 59.092 36.363 61.129 36.363 63.638 C 36.363 66.15 34.329 68.184 31.817 68.184 C 29.308 68.184 27.274 66.15 27.274 63.638 C 27.274 61.129 29.308 59.092 31.817 59.092 Z  M 31.817 77.276 C 34.329 77.276 36.363 79.31 36.363 81.822 C 36.363 84.331 34.329 86.363 31.817 86.363 C 29.308 86.363 27.274 84.329 27.274 81.822 C 27.274 79.308 29.308 77.276 31.817 77.276 Z  M 50.001 68.184 C 52.511 68.184 54.547 70.218 54.547 72.73 C 54.547 75.239 52.511 77.276 50.001 77.276 C 47.489 77.276 45.455 75.239 45.455 72.73 C 45.455 70.216 47.489 68.184 50.001 68.184 Z  M 50.001 86.363 C 52.511 86.363 54.547 88.4 54.547 90.909 C 54.547 93.421 52.511 95.455 50.001 95.455 C 47.489 95.455 45.455 93.421 45.455 90.909 C 45.455 88.4 47.489 86.363 50.001 86.363 Z  M 68.18 59.092 C 70.692 59.092 72.726 61.129 72.726 63.638 C 72.726 66.15 70.692 68.184 68.18 68.184 C 65.671 68.184 63.637 66.15 63.637 63.638 C 63.637 61.129 65.673 59.092 68.18 59.092 Z  M 68.18 77.276 C 70.692 77.276 72.726 79.31 72.726 81.822 C 72.726 84.331 70.692 86.363 68.18 86.363 C 65.671 86.363 63.637 84.329 63.637 81.822 C 63.637 79.308 65.673 77.276 68.18 77.276 Z " fill-rule="evenodd" fill="rgb(247,247,247)"/></g></svg>