<?xml version="1.0" encoding="UTF-8" standalone="no"?><!-- Generator: Gravit.io --><svg xmlns="http://www.w3.org/2000/svg" xmlns:xlink="http://www.w3.org/1999/xlink" style="isolation:isolate" viewBox="0 0 100 100" width="100pt" height="100pt"><defs><clipPath id="_clipPath_LMkCJsLCioHys6kJBQakSpNQJSDaeDUL"><rect width="100" height="100"/></clipPath></defs><g clip-path="url(#_clipPath_LMkCJsLCioHys6kJBQakSpNQJSDaeDUL)"><path d=" M 72.724 72.73 C 72.088 72.73 71.249 72.73 70.31 72.73 L 78.459 62.701 C 85.689 60.299 90.908 53.489 90.908 45.454 C 90.908 35.412 82.768 27.275 72.726 27.275 C 69.087 27.275 65.719 28.366 62.878 30.207 C 60.077 18.124 49.299 9.091 36.363 9.091 C 21.302 9.091 9.092 21.301 9.092 36.367 C 9.092 48.745 17.347 59.183 28.649 62.515 L 25.582 71.1 C 10.763 66.506 0 52.693 0 36.364 C 0 16.283 16.281 -0.001 36.363 -0.001 C 50.01 -0.001 61.887 7.527 68.105 18.646 C 69.615 18.387 71.144 18.18 72.726 18.18 C 87.79 18.18 100 30.389 100 45.452 C 100 60.515 87.787 72.73 72.724 72.73 Z  M 45.453 40.908 L 68.178 40.908 L 54.543 63.638 L 70.451 63.638 L 40.907 100.001 L 49.09 72.73 L 34.088 72.73 L 45.453 40.908 Z " fill-rule="evenodd" fill="rgb(247,247,247)"/></g></svg>