<?xml version="1.0" encoding="UTF-8" standalone="no"?><!-- Generator: Gravit.io --><svg xmlns="http://www.w3.org/2000/svg" xmlns:xlink="http://www.w3.org/1999/xlink" style="isolation:isolate" viewBox="0 0 100 100" width="100pt" height="100pt"><defs><clipPath id="_clipPath_gdJ1yWIfrOfZK90XsKTfRTBCkOmKJEt7"><rect width="100" height="100"/></clipPath></defs><g clip-path="url(#_clipPath_gdJ1yWIfrOfZK90XsKTfRTBCkOmKJEt7)"><path d=" M 95.238 16.666 L 4.762 16.666 C 2.134 16.666 0 14.533 0 11.906 C 0 9.277 2.134 7.144 4.762 7.144 L 95.238 7.144 C 97.866 7.144 100 9.277 100 11.906 C 100 14.533 97.869 16.666 95.238 16.666 Z  M 9.525 26.191 L 80.952 26.191 C 83.581 26.191 85.715 28.325 85.715 30.954 C 85.715 33.583 83.581 35.714 80.952 35.714 L 9.525 35.714 C 6.896 35.714 4.762 33.58 4.762 30.954 C 4.762 28.322 6.896 26.191 9.525 26.191 Z  M 38.095 45.239 L 90.477 45.239 C 93.106 45.239 95.238 47.372 95.238 49.999 C 95.238 52.628 93.106 54.761 90.477 54.761 L 38.095 54.761 C 35.466 54.761 33.335 52.628 33.335 49.999 C 33.335 47.372 35.466 45.239 38.095 45.239 Z  M 42.857 83.334 L 57.143 83.334 C 59.771 83.334 61.905 85.467 61.905 88.094 C 61.905 90.723 59.771 92.856 57.143 92.856 L 42.857 92.856 C 40.229 92.856 38.095 90.723 38.095 88.094 C 38.095 85.467 40.229 83.334 42.857 83.334 Z  M 45.239 69.046 C 45.239 66.417 47.372 64.286 50.001 64.286 L 83.334 64.286 C 85.963 64.286 88.096 66.42 88.096 69.046 C 88.096 71.675 85.963 73.809 83.334 73.809 L 50.001 73.809 C 47.372 73.809 45.239 71.678 45.239 69.046 Z " fill-rule="evenodd" fill="rgb(247,247,247)"/></g></svg>