<?xml version="1.0" encoding="UTF-8" standalone="no"?><!-- Generator: Gravit.io --><svg xmlns="http://www.w3.org/2000/svg" xmlns:xlink="http://www.w3.org/1999/xlink" style="isolation:isolate" viewBox="0 0 100 100" width="100pt" height="100pt"><defs><clipPath id="_clipPath_rQtqwJFqF6OT6cOEZwdxmLHbC2jXd84g"><rect width="100" height="100"/></clipPath></defs><g clip-path="url(#_clipPath_rQtqwJFqF6OT6cOEZwdxmLHbC2jXd84g)"><path d=" M 86.366 54.544 L 86.366 54.544 L 79.547 54.544 C 77.036 54.544 75.001 52.509 75.001 50 C 75.001 47.491 77.036 45.454 79.547 45.454 L 86.366 45.454 C 88.876 45.454 90.912 43.417 90.912 40.91 C 90.912 38.398 88.876 36.364 86.366 36.364 C 83.855 36.364 81.82 34.327 81.82 31.818 C 81.82 29.309 83.855 27.272 86.366 27.272 C 86.678 27.272 86.982 27.304 87.28 27.365 C 94.374 27.845 100 33.691 100 40.91 C 100 48.438 93.897 54.544 86.366 54.544 Z  M 63.636 45.454 L 59.09 45.454 L 43.183 45.454 L 13.636 45.454 C 11.127 45.454 9.092 47.491 9.092 50 C 9.092 52.509 11.127 54.544 13.636 54.544 L 18.182 54.544 L 27.272 54.544 L 34.091 54.544 L 43.183 54.544 L 50.002 54.544 L 59.09 54.544 L 63.636 54.544 C 71.169 54.544 77.274 60.651 77.274 68.182 C 77.274 75.401 71.648 81.247 64.554 81.727 C 64.256 81.788 63.952 81.82 63.636 81.82 C 61.127 81.82 59.09 79.784 59.09 77.274 C 59.09 74.762 61.127 72.728 63.636 72.728 C 66.148 72.728 68.182 70.691 68.182 68.182 C 68.182 65.673 66.148 63.636 63.636 63.636 L 59.09 63.636 L 50.002 63.636 L 43.183 63.636 L 34.091 63.636 L 27.272 63.636 L 18.182 63.636 L 13.636 63.636 C 6.105 63.636 0 57.531 0 50 C 0 42.783 5.626 36.937 12.72 36.455 C 13.018 36.396 13.325 36.364 13.636 36.364 L 13.636 36.364 L 43.183 36.364 L 59.09 36.364 L 63.636 36.364 C 66.148 36.364 68.182 34.327 68.182 31.818 C 68.182 29.309 66.148 27.272 63.636 27.272 C 61.127 27.272 59.09 25.238 59.09 22.726 C 59.09 20.216 61.127 18.18 63.636 18.18 C 63.952 18.18 64.256 18.214 64.554 18.273 C 71.648 18.753 77.274 24.599 77.274 31.818 C 77.274 39.346 71.169 45.454 63.636 45.454 Z " fill-rule="evenodd" fill="rgb(247,247,247)"/></g></svg>